# xmcd
#
# Track frame offsets: 
#        150
#        21339
#        39485
#        55148
#        80620
#        94418
#        115126
#        129518
#        147213
#        164410
#        181478
#        197535
#
# Disc length: 2849 seconds
#
# Revision: 0
# Processed by: cddbd v1.5.2PL0 Copyright (c) Steve Scherf et al.
# Submitted via: ExactAudioCopy v0.99pb5
#
DISCID=a40b1f0c
DTITLE=Алексин - Шалава
DYEAR=2001
DGENRE=
TTITLE0=Шалавы
TTITLE1=Страшная
TTITLE2=Хищница
TTITLE3=Балы
TTITLE4=Карамелька
TTITLE5=Дискотеки
TTITLE6=Вот так...
TTITLE7=Одеяло
TTITLE8=Лиза
TTITLE9=Крик журавлей
TTITLE10=Александра
TTITLE11=Прости меня любовь
EXTD=
EXTT0=
EXTT1=
EXTT2=
EXTT3=
EXTT4=
EXTT5=
EXTT6=
EXTT7=
EXTT8=
EXTT9=
EXTT10=
EXTT11=
PLAYORDER=
